<svg width="53" height="18" viewBox="0 0 53 18" fill="none" xmlns="http://www.w3.org/2000/svg">
<path d="M11.3573 3.712H10.8173L10.2053 1.642L7.01929 1.606V12.406L8.69329 12.568V13H3.49129V12.568L5.16529 12.406V1.606L1.97929 1.642L1.36729 3.712H0.845285V0.993999L6.10129 0.957999L11.3573 0.993999V3.712ZM13.006 11.056C13.006 11.836 13.324 12.298 13.96 12.442C14.104 12.478 14.242 12.496 14.374 12.496C14.83 12.496 15.304 12.304 15.796 11.92C16.288 11.524 16.546 10.996 16.57 10.336V8.788C14.194 8.812 13.006 9.568 13.006 11.056ZM13.726 13.216C13.042 13.216 12.454 13.03 11.962 12.658C11.482 12.274 11.242 11.74 11.242 11.056C11.254 10.132 11.716 9.442 12.628 8.986C13.552 8.53 14.866 8.302 16.57 8.302V6.754C16.57 5.23 16.018 4.468 14.914 4.468C14.35 4.468 13.894 4.702 13.546 5.17C13.306 5.494 13.186 5.896 13.186 6.376C13.186 6.58 13.21 6.796 13.258 7.024C13.09 7.144 12.916 7.204 12.736 7.204C12.568 7.204 12.4 7.168 12.232 7.096C11.848 6.952 11.656 6.676 11.656 6.268C11.656 5.716 11.854 5.26 12.25 4.9C12.898 4.312 13.792 4.018 14.932 4.018C16.072 4.018 16.9 4.264 17.416 4.756C17.932 5.236 18.19 5.998 18.19 7.042V12.496L19.702 12.568L19.72 12.982L16.714 13.198L16.552 11.596C16 12.676 15.058 13.216 13.726 13.216ZM26.0685 4C26.3805 4 26.6265 4.078 26.8065 4.234C26.9865 4.378 27.0765 4.582 27.0765 4.846C27.0765 5.302 26.9025 5.602 26.5545 5.746C26.3625 5.59 26.0145 5.512 25.5105 5.512C25.0065 5.512 24.5205 5.68 24.0525 6.016C23.5965 6.34 23.3685 6.712 23.3685 7.132V12.478L24.9885 12.568V13H20.4165V12.568L21.6045 12.496V4.81L20.1825 4.738V4.324L23.3685 4.126L23.2605 6.34H23.3325C23.5365 5.692 23.9085 5.14 24.4485 4.684C25.0005 4.228 25.5405 4 26.0685 4ZM30.2795 11.2C30.2795 11.476 30.4715 11.662 30.8555 11.758C31.2515 11.842 32.0675 11.938 33.3035 12.046C34.5395 12.154 35.4275 12.376 35.9675 12.712C36.5075 13.036 36.7775 13.564 36.7775 14.296C36.7775 15.232 36.3335 16.03 35.4455 16.69C34.5695 17.35 33.4295 17.68 32.0255 17.68C30.6215 17.68 29.5895 17.452 28.9295 16.996C28.2695 16.552 27.9395 15.958 27.9395 15.214C27.9395 14.722 28.1015 14.254 28.4255 13.81C28.7495 13.378 29.2235 13.072 29.8475 12.892C29.1155 12.628 28.7495 12.19 28.7495 11.578C28.7495 11.218 28.9355 10.918 29.3075 10.678C29.6795 10.426 30.0995 10.27 30.5675 10.21C29.8115 9.994 29.2295 9.622 28.8215 9.094C28.4135 8.554 28.2095 7.924 28.2095 7.204C28.2095 6.28 28.5515 5.518 29.2355 4.918C29.9315 4.318 30.8675 4.018 32.0435 4.018C32.3795 4.018 32.7455 4.06 33.1415 4.144C33.4895 4.06 33.7655 3.88 33.9695 3.604C34.1855 3.304 34.2935 2.986 34.2935 2.65C34.2935 2.314 34.2755 2.026 34.2395 1.786C34.4075 1.714 34.5755 1.678 34.7435 1.678C34.9115 1.678 35.0795 1.72 35.2475 1.804C35.5715 1.972 35.7335 2.266 35.7335 2.686C35.7335 3.094 35.5355 3.454 35.1395 3.766C34.7435 4.078 34.2695 4.258 33.7175 4.306C34.3655 4.546 34.8635 4.924 35.2115 5.44C35.5595 5.944 35.7335 6.532 35.7335 7.204C35.7335 8.212 35.3435 8.992 34.5635 9.544C33.7955 10.096 32.8475 10.372 31.7195 10.372C31.2995 10.384 30.9515 10.48 30.6755 10.66C30.4115 10.828 30.2795 11.008 30.2795 11.2ZM29.3255 15.016C29.3255 15.652 29.5835 16.156 30.0995 16.528C30.6275 16.912 31.3055 17.104 32.1335 17.104C32.9735 17.104 33.7235 16.894 34.3835 16.474C35.0435 16.054 35.3795 15.526 35.3915 14.89C35.3915 14.482 35.2595 14.176 34.9955 13.972C34.7675 13.792 34.4495 13.672 34.0415 13.612C33.6335 13.552 33.0635 13.48 32.3315 13.396C31.6115 13.324 30.9935 13.234 30.4775 13.126C30.1535 13.294 29.8775 13.552 29.6495 13.9C29.4335 14.26 29.3255 14.632 29.3255 15.016ZM31.9175 9.994C32.5895 9.994 33.0875 9.736 33.4115 9.22C33.7355 8.704 33.8975 8.032 33.8975 7.204C33.8975 5.344 33.2795 4.414 32.0435 4.414C31.3715 4.414 30.8675 4.666 30.5315 5.17C30.2075 5.662 30.0455 6.34 30.0455 7.204C30.0455 9.064 30.6695 9.994 31.9175 9.994ZM41.5755 13.198C40.3395 13.198 39.3435 12.778 38.5875 11.938C37.8315 11.098 37.4535 9.988 37.4535 8.608C37.4535 7.228 37.8495 6.118 38.6415 5.278C39.4455 4.438 40.4535 4.018 41.6655 4.018C42.8775 4.018 43.7835 4.294 44.3835 4.846C44.9835 5.386 45.2835 6.142 45.2835 7.114C45.2835 7.402 45.2595 7.69 45.2115 7.978H39.3975V8.608C39.3975 9.952 39.5895 10.972 39.9735 11.668C40.3575 12.352 40.9875 12.694 41.8635 12.694C43.0995 12.694 44.0535 12.154 44.7255 11.074C44.9895 11.158 45.1215 11.284 45.1215 11.452C45.1215 11.752 44.8455 12.1 44.2935 12.496C44.0295 12.688 43.6575 12.856 43.1775 13C42.6975 13.132 42.1635 13.198 41.5755 13.198ZM43.5735 6.736C43.5735 6.184 43.4595 5.71 43.2315 5.314C42.9195 4.786 42.4155 4.522 41.7195 4.522C40.4235 4.522 39.6675 5.458 39.4515 7.33H43.5375C43.5615 7.126 43.5735 6.928 43.5735 6.736ZM52.3461 11.128C52.3461 11.164 52.3401 11.206 52.3281 11.254C52.1361 11.842 51.8121 12.316 51.3561 12.676C50.9121 13.024 50.3901 13.198 49.7901 13.198C49.1901 13.198 48.6861 13.03 48.2781 12.694C47.8821 12.346 47.6841 11.674 47.6841 10.678C47.6841 10.402 47.7141 8.404 47.7741 4.684H46.5321V4.216H47.7921L47.8101 1.57H49.5741L49.5201 4.216H52.0941V4.684H49.5201C49.4601 8.56 49.4301 10.828 49.4301 11.488C49.4301 12.292 49.6941 12.694 50.2221 12.694C50.5461 12.694 50.8821 12.508 51.2301 12.136C51.5901 11.764 51.8421 11.344 51.9861 10.876C52.2261 10.876 52.3461 10.96 52.3461 11.128Z" fill="#D20100"/>
</svg>
